<svg xmlns="http://www.w3.org/2000/svg" width="170" height="36" viewBox="0 0 170 36" fill="none">
<g clip-path="url(#clip0)">
<path d="M34.2387 8.25366L34.7023 7.33846C35.4012 5.97073 35.9825 5.16022 36.4462 4.89343C36.9099 4.61651 37.4609 4.47129 38.0691 4.47129C38.8083 4.47129 39.198 4.6469 39.2619 4.97786C39.3257 5.31895 39.0401 6.10582 38.4286 7.33171L37.7028 8.72308C41.4257 9.26004 45.0445 9.81388 48.4919 10.4049C49.5603 8.25704 50.2424 6.72045 50.528 5.78161C50.8539 4.69081 50.6759 3.68443 49.9736 2.76248C49.2815 1.84728 48.0954 1.16173 46.4154 0.692308C44.7421 0.233021 42.7093 0 40.2968 0C37.76 0.0101313 35.4214 0.263415 33.2609 0.739587C31.1071 1.24615 29.239 1.93171 27.6497 2.85028C26.0738 3.75535 24.8844 4.77861 24.1116 5.8863C23.9167 6.1666 23.6815 6.53133 23.4463 6.91295C27.1154 7.32833 30.7174 7.78424 34.2387 8.25366Z" fill="black"/>
<path d="M26.2686 27.5234C28.7987 27.5099 31.144 27.2735 33.2944 26.7737C35.4482 26.284 37.3197 25.5883 38.9123 24.6765C40.4949 23.7478 41.6642 22.7482 42.4403 21.6439C43.2165 20.5497 44.2951 18.6686 45.6424 16.0075L47.9441 11.4788L47.9743 11.4315C44.5404 10.7763 40.9451 10.1617 37.2794 9.57408L32.2293 19.4724C31.4296 21.0225 30.8181 22.0221 30.3846 22.4274C29.9411 22.8529 29.3296 23.0521 28.5064 23.0555C27.7268 23.0555 27.3136 22.8833 27.2867 22.5118C27.2531 22.1538 27.6294 21.215 28.4089 19.6716L33.8286 9.04387C30.2737 8.50353 26.6684 8.00034 23.0867 7.50391C22.4819 8.55419 21.7527 9.89152 20.9194 11.5125L18.6178 16.0412C17.2369 18.7598 16.3733 20.6544 16.0474 21.7553C15.7081 22.8394 15.8828 23.8525 16.585 24.7643C17.2738 25.6964 18.4599 26.382 20.1332 26.8311C21.8199 27.2938 23.8595 27.5234 26.2686 27.5234Z" fill="black"/>
<path d="M58.0175 14.9471L57.9637 26.8954L68.2185 26.8819L72.7075 18.1014C67.5868 15.7543 59.4018 13.647 49.8762 11.7896L42.1582 26.9258L51.9224 26.9123L58.0175 14.9471Z" fill="black"/>
<path d="M66.5651 14.1704C69.1691 14.8526 71.5178 15.5921 73.5976 16.352L81.6718 0.526855L71.9176 0.53361L65.8562 12.4042L65.3522 0.550495L55.6014 0.564004L50.4102 10.7392C56.4044 11.7895 61.8577 12.9377 66.5651 14.1704Z" fill="black"/>
<path d="M73.5776 16.3486L72.704 18.1014C73.9707 18.6755 75.0493 19.2766 75.9196 19.8811C81.1175 23.5182 80.2741 25.4263 76.3496 27.277C69.7069 30.4143 48.1994 31.9678 48.1994 31.9678C49.9937 29.9246 51.4922 27.6957 51.4922 27.6957C39.497 32.6635 25.1464 34.8552 19.9014 35.615C44.9032 36.976 74.6091 34.791 83.8525 28.5332C88.4356 25.4364 84.6993 20.4214 73.5776 16.3486Z" fill="black"/>
<path d="M11.9818 5.68684L0 4.74463C7.06275 5.50448 15.0495 6.42981 23.1337 7.51048L23.5033 6.91273L11.9818 5.68684Z" fill="black"/>
<path d="M82.9756 2.12091C83.0899 1.87101 83.2411 1.66163 83.4326 1.48602C83.6207 1.31041 83.8459 1.17532 84.0945 1.07739C84.3432 0.982826 84.6052 0.935547 84.8808 0.935547C85.1563 0.935547 85.415 0.982826 85.6636 1.07739C85.9156 1.17194 86.1341 1.30703 86.3256 1.48602C86.5137 1.66163 86.6683 1.87438 86.7792 2.12091C86.8934 2.37082 86.9505 2.64774 86.9505 2.95506C86.9505 3.26575 86.8934 3.54605 86.7792 3.79596C86.6683 4.04249 86.5137 4.25525 86.3256 4.43423C86.1341 4.60984 85.9156 4.74493 85.6636 4.83949C85.415 4.93067 85.1529 4.98133 84.8808 4.98133C84.6086 4.98133 84.3465 4.93405 84.0945 4.83949C83.8459 4.74493 83.6241 4.60984 83.4326 4.43423C83.2411 4.25525 83.0899 4.04249 82.9756 3.79596C82.8647 3.54605 82.8076 3.26575 82.8076 2.95506C82.8076 2.64774 82.8614 2.37082 82.9756 2.12091ZM83.4763 3.59671C83.5569 3.79258 83.6611 3.96144 83.7988 4.10665C83.9332 4.24849 84.0979 4.35994 84.2827 4.44099C84.4675 4.51866 84.6657 4.55919 84.8808 4.55919C85.0891 4.55919 85.2873 4.51866 85.4721 4.44099C85.6569 4.35994 85.8182 4.25187 85.956 4.10665C86.0937 3.96144 86.2013 3.79258 86.2819 3.59671C86.3625 3.40084 86.4029 3.18808 86.4029 2.95844C86.4029 2.72879 86.3625 2.51603 86.2819 2.32016C86.2013 2.12767 86.0937 1.96219 85.956 1.82035C85.8182 1.67851 85.6603 1.57044 85.4721 1.48939C85.2873 1.41172 85.0924 1.37119 84.8808 1.37119C84.6691 1.37119 84.4708 1.41172 84.2827 1.48939C84.0979 1.57044 83.9366 1.68189 83.7988 1.82035C83.6611 1.96219 83.5569 2.12767 83.4763 2.32016C83.3956 2.51266 83.3553 2.72879 83.3553 2.95844C83.3553 3.18808 83.3956 3.40084 83.4763 3.59671ZM84.9278 1.81697C85.21 1.81697 85.4284 1.86763 85.583 1.96894C85.7342 2.07026 85.8115 2.24587 85.8115 2.48902C85.8115 2.59371 85.7947 2.68151 85.7644 2.75581C85.7308 2.83011 85.6905 2.89089 85.6368 2.93817C85.5796 2.98545 85.5192 3.0226 85.4452 3.04624C85.3747 3.07326 85.2974 3.08677 85.2134 3.0969L85.8182 4.08639H85.3478L84.7968 3.11716H84.5145V4.08639H84.0676V1.81697H84.9278ZM84.9211 2.76594C85.0521 2.76594 85.1563 2.74906 85.2403 2.71191C85.3243 2.67476 85.3646 2.59033 85.3646 2.45187C85.3646 2.39108 85.3478 2.34043 85.3243 2.30665C85.294 2.26951 85.2571 2.24249 85.21 2.22223C85.1664 2.20196 85.116 2.18846 85.0588 2.1817C85.0017 2.17495 84.9513 2.17157 84.9009 2.17157H84.5212V2.76594H84.9211Z" fill="black"/>
<path d="M99.849 11.1004C99.5936 11.4382 98.8443 12.2858 98.4142 12.5425C98.0782 12.7417 97.5877 12.9173 97.1173 12.9173H94.1268C93.6363 12.9173 93.1625 12.7383 92.8299 12.5425C92.3964 12.2858 91.6303 11.4348 91.3951 11.1004C91.1398 10.7256 91.0625 10.2899 91.0625 9.87455V3.92408C91.0625 3.48844 91.1398 3.05279 91.3951 2.67793C91.6303 2.36048 92.3998 1.51283 92.8299 1.25279C93.1659 1.05354 93.6363 0.87793 94.1268 0.87793H97.1173C97.591 0.87793 98.0816 1.05692 98.4142 1.25279C98.8477 1.50945 99.5936 2.36048 99.849 2.67793C100.104 3.05279 100.182 3.48844 100.182 3.92408V9.87455C100.182 10.2899 100.104 10.7256 99.849 11.1004ZM97.7825 3.92408C97.6448 3.68769 97.2718 3.31283 97.0736 3.19125H94.1806C94.0227 3.30945 93.69 3.60664 93.4515 3.94097V9.87455C93.6665 10.1717 94.0025 10.5061 94.1604 10.6074H97.0534C97.2113 10.4892 97.5641 10.1515 97.7825 9.87455V3.92408Z" fill="black"/>
<path d="M110.212 6.77099C110.034 7.04791 109.425 7.64229 109.15 7.83816C108.716 8.15561 108.186 8.29407 107.675 8.29407H104.332V12.8228H101.933V0.958984H107.678C108.169 0.958984 108.78 1.13797 109.153 1.41489C109.429 1.63103 110.02 2.24566 110.215 2.50232C110.47 2.85692 110.588 3.37362 110.588 3.80589V5.48769C110.588 5.96048 110.467 6.39613 110.212 6.77099ZM108.186 3.7451C108.088 3.58638 107.87 3.37024 107.675 3.27231H104.332V5.98075H107.675C107.735 5.98075 108.068 5.70382 108.186 5.50458V3.7451Z" fill="black"/>
<path d="M116.882 3.27231V12.8228H114.463V3.27231H111.274V0.958984H120.047V3.27231H116.882Z" fill="black"/>
<path d="M121.387 12.8228V0.958984H123.806V12.8228H121.387Z" fill="black"/>
<path d="M133.783 12.8228V5.68356C133.114 7.12559 132.405 8.57099 131.736 9.99275H130.164L128.138 5.70045V12.8194H125.739V0.958984H128.353L130.99 6.33872C131.857 4.55898 132.721 2.72184 133.588 0.958984H136.185V12.8228H133.783Z" fill="black"/>
<path d="M146.668 11.1004C146.433 11.4382 145.684 12.2858 145.25 12.5425C144.898 12.7417 144.424 12.9173 143.953 12.9173H141.141C140.65 12.9173 140.177 12.7383 139.844 12.5425C139.411 12.2858 138.645 11.4348 138.409 11.1004C138.154 10.7256 138.077 10.2899 138.077 9.87456V0.958984H140.476V9.85767C140.711 10.1549 141.047 10.5095 141.205 10.6074H143.9C144.057 10.5095 144.39 10.192 144.609 9.87456V0.958984H147.008V9.87793C147.001 10.2899 146.924 10.7256 146.668 11.1004Z" fill="black"/>
<path d="M156.799 12.8228V5.68356C156.13 7.12559 155.421 8.57099 154.753 9.99275H153.18L151.154 5.70045V12.8194H148.755V0.958984H151.372L154.01 6.33872C154.877 4.55898 155.74 2.72184 156.607 0.958984H159.205V12.8228H156.799Z" fill="black"/>
<path d="M97.2693 26.5879L93.4523 19.6074V26.5879H91.0532V14.7241H93.5128L97.2894 21.8025V14.7241H99.6885V26.5879H97.2693Z" fill="black"/>
<path d="M110.135 24.869C109.899 25.2067 109.15 26.0543 108.717 26.311C108.364 26.5102 107.89 26.6858 107.42 26.6858H104.607C104.117 26.6858 103.643 26.5069 103.31 26.311C102.877 26.0543 102.111 25.2033 101.876 24.869C101.62 24.4941 101.543 24.0585 101.543 23.6431V14.7241H103.942V23.6228C104.177 23.92 104.513 24.2746 104.671 24.3725H107.366C107.524 24.2746 107.856 23.9571 108.075 23.6397V14.7241H110.474V23.6431C110.471 24.0585 110.39 24.4907 110.135 24.869Z" fill="black"/>
<path d="M117.258 17.0374V26.5879H114.839V17.0374H111.65V14.7241H120.423V17.0374H117.258Z" fill="black"/>
<path d="M129.966 20.5361C129.787 20.8131 129.179 21.4074 128.904 21.6033C128.746 21.7215 128.588 21.8025 128.43 21.8802C129.394 23.66 130.987 26.5879 130.987 26.5879H128.312L125.97 22.0592H124.082V26.5879H121.683V14.7241H127.429C127.919 14.7241 128.531 14.9031 128.904 15.18C129.179 15.3962 129.771 16.0108 129.966 16.2675C130.221 16.6221 130.338 17.1388 130.338 17.571V19.2528C130.338 19.7256 130.221 20.1613 129.966 20.5361ZM127.939 17.5136C127.842 17.3549 127.624 17.1388 127.429 17.0408H124.086V19.7493H127.429C127.489 19.7493 127.822 19.4723 127.939 19.2765V17.5136Z" fill="black"/>
<path d="M132.288 26.5879V14.7241H134.707V26.5879H132.288Z" fill="black"/>
<path d="M141.672 17.0374V26.5879H139.253V17.0374H136.064V14.7241H144.837V17.0374H141.672Z" fill="black"/>
<path d="M146.174 26.5879V14.7241H148.594V26.5879H146.174Z" fill="black"/>
<path d="M159.279 24.869C159.023 25.2067 158.274 26.0543 157.844 26.311C157.508 26.5102 157.017 26.6858 156.547 26.6858H153.553C153.063 26.6858 152.589 26.5069 152.256 26.311C151.823 26.0543 151.057 25.2033 150.821 24.869C150.566 24.4941 150.489 24.0585 150.489 23.6431V17.6892C150.489 17.2536 150.566 16.8179 150.821 16.4431C151.057 16.1256 151.826 15.278 152.256 15.0179C152.592 14.8187 153.063 14.6431 153.553 14.6431H156.544C157.017 14.6431 157.508 14.8221 157.841 15.0179C158.274 15.2746 159.02 16.1256 159.275 16.4431C159.531 16.8179 159.608 17.2536 159.608 17.6892V23.6397C159.611 24.0585 159.534 24.4907 159.279 24.869ZM157.212 17.6892C157.074 17.4528 156.701 17.078 156.503 16.9564H153.61C153.452 17.0746 153.12 17.3718 152.881 17.7061V23.6397C153.096 23.9369 153.432 24.2712 153.59 24.3725H156.483C156.641 24.2543 156.994 23.9166 157.212 23.6397V17.6892Z" fill="black"/>
<path d="M167.581 26.5879L163.764 19.6074V26.5879H161.365V14.7241H163.824L167.601 21.8025V14.7241H170V26.5879H167.581Z" fill="black"/>
</g>
<defs>
<clipPath id="clip0">
<rect width="170" height="36" fill="black"/>
</clipPath>
</defs>
</svg>