<svg width="142" height="126" viewBox="0 0 142 126" fill="none" xmlns="http://www.w3.org/2000/svg">
<path d="M142 63C142 67.411 126.684 70.2151 125.645 74.3425C124.571 78.5959 137.045 87.1657 135 91.0096C132.921 94.9164 117.779 91.3877 114.834 94.7589C111.854 98.1301 119.026 110.764 115.284 113.474C111.576 116.152 99.6218 107.015 95.325 108.905C91.0976 110.764 91.5134 124.974 86.8009 125.951C82.2616 126.896 75.8511 113.947 71 113.947C66.1489 113.947 59.7384 126.896 55.1991 125.951C50.5212 124.974 50.937 110.764 46.675 108.905C42.3782 107.015 30.4236 116.152 26.716 113.474C23.0083 110.764 30.1464 98.1301 27.1664 94.7589C24.2211 91.3877 9.07857 94.9479 6.99951 91.0096C4.9551 87.1657 17.3948 78.5959 16.3553 74.3425C15.3158 70.2151 0 67.411 0 63C0 58.589 15.3158 55.7849 16.3553 51.6575C17.4295 47.4041 4.9551 38.8343 6.99951 34.9904C9.07857 31.0836 24.2211 34.6123 27.1664 31.2411C30.1464 27.8699 22.9736 15.2356 26.716 12.526C30.4236 9.84796 42.3782 18.9849 46.675 17.0945C50.9024 15.2356 50.4866 1.02605 55.1991 0.0493369C59.7384 -0.895868 66.1489 12.0534 71 12.0534C75.8511 12.0534 82.2616 -0.895868 86.8009 0.0493369C91.5134 1.02605 91.0976 15.2356 95.325 17.0945C99.6218 18.9849 111.576 9.84796 115.284 12.526C118.992 15.2356 111.854 27.8699 114.834 31.2411C117.779 34.6123 132.921 31.0521 135 34.9904C137.045 38.8343 124.605 47.4041 125.645 51.6575C126.684 55.7849 142 58.589 142 63Z" fill="#58C566"/>
</svg>
